HIERARCHY
ROOT Hips
{
  OFFSET 34.5067 99.9285 1.64939
  CHANNELS 6 Xposition Yposition Zposition Zrotation Xrotation Yrotation
  JOINT spine
  {
    OFFSET 0 8.81705 0.507024
    CHANNELS 3 Zrotation Xrotation Yrotation
    JOINT spine1
    {
      OFFSET 0 10.7766 0
      CHANNELS 3 Zrotation Xrotation Yrotation
      JOINT spine2
      {
        OFFSET 0 10.3259 0
        CHANNELS 3 Zrotation Xrotation Yrotation
        JOINT Neck
        {
          OFFSET 0 26.511 1.26395
          CHANNELS 3 Zrotation Xrotation Yrotation
          JOINT Head
          {
            OFFSET 0 8.00966 0
            CHANNELS 3 Zrotation Xrotation Yrotation
            End Site
            {
              OFFSET 0 19.3879 -6.39386
            }
          }
        }
        JOINT RightShoulder
        {
          OFFSET -4.34795 11.1512 -0.605422
          CHANNELS 3 Zrotation Xrotation Yrotation
          JOINT RightArm
          {
            OFFSET 0 14.6258 0
            CHANNELS 3 Zrotation Xrotation Yrotation
            JOINT RightArmRoll
            {
              OFFSET 0 7.3834 0
              CHANNELS 3 Zrotation Xrotation Yrotation
              JOINT RightForeArm
              {
                OFFSET 0 21.5052 0
                CHANNELS 3 Zrotation Xrotation Yrotation
                JOINT RightForeArmRoll
                {
                  OFFSET 0 8.28532 0
                  CHANNELS 3 Zrotation Xrotation Yrotation
                  JOINT RightHand
                  {
                    OFFSET 0 16.6268 0
                    CHANNELS 3 Zrotation Xrotation Yrotation
                    End Site
                    {
                      OFFSET 0 0 0
                    }
                  }
                }
              }
            }
          }
        }
        JOINT LeftShoulder
        {
          OFFSET 4.34795 11.1512 -0.605422
          CHANNELS 3 Zrotation Xrotation Yrotation
          JOINT LeftArm
          {
            OFFSET 0 14.6258 0
            CHANNELS 3 Zrotation Xrotation Yrotation
            JOINT LeftArmRoll
            {
              OFFSET 0 7.3834 0
              CHANNELS 3 Zrotation Xrotation Yrotation
              JOINT LeftForeArm
              {
                OFFSET 0 21.5052 0
                CHANNELS 3 Zrotation Xrotation Yrotation
                JOINT LeftForeArmRoll
                {
                  OFFSET 0 8.28532 0
                  CHANNELS 3 Zrotation Xrotation Yrotation
                  JOINT LeftHand
                  {
                    OFFSET 0 16.6268 0
                    CHANNELS 3 Zrotation Xrotation Yrotation
                    End Site
                    {
                      OFFSET 0 0 0
                    }
                  }
                }
              }
            }
          }
        }
      }
    }
  }
  JOINT RightUpLeg
  {
    OFFSET -7.8151 -1.43309 -1.20217
    CHANNELS 3 Zrotation Xrotation Yrotation
    JOINT RightUpLegRoll
    {
      OFFSET 0 19.4959 0
      CHANNELS 3 Zrotation Xrotation Yrotation
      JOINT RightLeg
      {
        OFFSET 0 -24.1427 0
        CHANNELS 3 Zrotation Xrotation Yrotation
        JOINT RightLegRoll
        {
          OFFSET 0 24.2217 0
          CHANNELS 3 Zrotation Xrotation Yrotation
          JOINT RightFoot
          {
            OFFSET 0 20.1605 0
            CHANNELS 3 Zrotation Xrotation Yrotation
            JOINT RightToeBase
            {
              OFFSET 0 16.8532 0
              CHANNELS 3 Zrotation Xrotation Yrotation
              End Site
              {
                OFFSET 0.00714343 8.16187 -0.94078
              }
            }
          }
        }
      }
    }
  }
  JOINT LeftUpLeg
  {
    OFFSET 7.8151 -1.43309 -1.20217
    CHANNELS 3 Zrotation Xrotation Yrotation
    JOINT LeftUpLegRoll
    {
      OFFSET 0 19.496 0
      CHANNELS 3 Zrotation Xrotation Yrotation
      JOINT LeftLeg
      {
        OFFSET 0 24.1426 0
        CHANNELS 3 Zrotation Xrotation Yrotation
        JOINT LeftLegRoll
        {
          OFFSET 0 24.4456 0
          CHANNELS 3 Zrotation Xrotation Yrotation
          JOINT LeftFoot
          {
            OFFSET 0 19.9366 0
            CHANNELS 3 Zrotation Xrotation Yrotation
            JOINT LeftToeBase
            {
              OFFSET 0 16.8532 0
              CHANNELS 3 Zrotation Xrotation Yrotation
              End Site
              {
                OFFSET -0.0320138 8.16187 -0.94078
              }
            }
          }
        }
      }
    }
  }
}
MOTION
Frames: 6
Frame Time: 0.00208333
33.7994 100.039 7.28268 -4.0778 3.5967 6.89753 0.177283 -2.37568 -0.00917338 0.353653 -0.748608 -0.0339355 0.354104 0.896456 -0.0398572 -1.91874 6.45771 -1.30165 2.12639 -0.652897 -1.43681 61.8736 -11.514 -7.11985 82.7966 9.67027 34.3788 -3.49514e-006 -8.91308e-007 -2.03233e-007 3.0439 7.9218 -0.842002 1.63956e-005 -1.31099e-007 -3.00016 8.02943 -4.95137 0.697684 -62.0262 -3.14351 2.24708 -79.7969 11.9201 -24.1303 1.78906e-014 8.74653e-015 -0 -5.39794 3.03588 0.976207 1.82734e-005 9.45919e-007 3.00125 -8.0292 -4.95142 -0.697651 -173.163 13.0387 -2.50231 180 7.01541e-015 178.899 175.737 29.8001 -179.999 4.18653e-007 -4.00231e-006 0.552588 -21.857 69.5617 21.3412 9.64347 34.5666 -8.36416 -177.485 16.1065 1.12759 4.54188e-006 -4.67731e-006 -1.13931 -1.3727 -35.6621 0.697139 -6.13802e-006 -3.03335e-006 -0.682687 22.1645 71.5881 -23.1364 -9.28264 35.9689 5.54749 
33.7656 99.7806 7.25013 -4.1275 3.68456 6.8766 0.18457 -2.39724 -0.00309575 0.36838 -0.791718 -0.022346 0.368688 0.853346 -0.0285128 -1.95532 6.92575 -1.28188 2.12863 -1.0886 -1.42216 62.1171 -11.3992 -7.05028 83.4866 9.67703 34.4531 -3.49514e-006 -8.91308e-007 -2.03233e-007 2.84258 7.93092 -0.824191 1.63956e-005 -1.31099e-007 -3.00017 8.02943 -4.95137 0.697684 -62.4093 -3.16456 2.29162 -80.206 11.7592 -23.714 1.07344e-014 1.03368e-014 -0 -5.68 2.93513 0.962258 1.82734e-005 9.45919e-007 3.00125 -8.0292 -4.95142 -0.697651 -172.982 13.3347 -2.61208 180 7.01537e-015 178.879 175.763 30.4052 -179.975 4.18653e-007 -4.00231e-006 0.596196 -23.0787 70.1561 22.0625 9.62681 34.9082 -7.99095 -177.524 16.4196 1.18354 4.54188e-006 -4.67731e-006 -1.14972 -1.24618 -36.3912 0.734425 -6.13802e-006 -3.03335e-006 -0.741748 22.993 72.2029 -23.923 -9.29942 36.3825 5.42344 
33.7467 99.3957 7.20656 -4.17909 3.77519 6.85541 0.19237 -2.41953 0.00330621 0.384147 -0.836274 -0.0101486 0.384305 0.808787 -0.0165781 -1.98583 7.39712 -1.26179 2.12068 -1.52668 -1.40718 62.3491 -11.2875 -6.98356 84.1877 9.69222 34.5423 -3.49514e-006 -8.91308e-007 -2.03233e-007 2.62554 7.93622 -0.804783 1.63956e-005 -1.31099e-007 -3.00017 8.02943 -4.95137 0.697684 -62.7931 -3.18538 2.33585 -80.6158 11.5918 -23.2962 -1.98785e-016 -1.19271e-015 -6.36111e-015 -5.96442 2.84115 0.948274 1.82734e-005 9.45919e-007 3.00126 -8.0292 -4.95142 -0.697651 -172.8 13.6428 -2.72215 180 7.01532e-015 178.858 175.79 31.0363 -179.948 4.18653e-007 -4.00231e-006 0.642173 -24.4088 70.7823 22.8739 9.59488 35.2308 -7.57755 -177.562 16.746 1.24046 4.54188e-006 -4.67731e-006 -1.16055 -1.11166 -37.1484 0.774328 -6.13802e-006 -3.03335e-006 -0.803887 23.9251 72.8477 -24.813 -9.3088 36.777 5.28381 
33.7103 99.2298 7.17539 -4.23215 3.86792 6.83393 0.200665 -2.44222 0.00995024 0.400921 -0.881637 0.00249341 0.400923 0.763422 -0.00421587 -2.01218 7.86843 -1.24142 2.10482 -1.96603 -1.39204 62.5681 -11.1794 -6.91989 84.8996 9.7147 34.6393 -3.49514e-006 -8.91308e-007 -2.03233e-007 2.39854 7.93743 -0.784297 1.63956e-005 -1.31099e-007 -3.00017 8.02943 -4.95137 0.697684 -63.1761 -3.20592 2.37963 -81.0272 11.4191 -22.881 4.37326e-015 2.78299e-015 -3.18055e-015 -6.24691 2.75502 0.934544 1.82734e-005 9.45919e-007 3.00126 -8.0292 -4.95142 -0.697651 -172.62 13.962 -2.83141 180 7.01526e-015 178.837 175.816 31.6894 -179.92 4.18653e-007 -4.00231e-006 0.690113 -25.8408 71.4338 23.7799 9.549 35.5284 -7.13542 -177.596 17.0838 1.29694 4.54188e-006 -4.67731e-006 -1.17165 -0.971165 -37.9269 0.816449 -6.13802e-006 -3.03335e-006 -0.868481 24.966 73.5158 -25.8138 -9.31097 37.1464 5.1326 
33.6968 98.8418 7.12731 -4.28626 3.96212 6.81214 0.20944 -2.46499 0.016754 0.418665 -0.927165 0.0154165 0.418507 0.717891 0.00841099 -2.03628 8.33629 -1.22081 2.08335 -2.40554 -1.37695 62.7727 -11.0756 -6.85946 85.6223 9.74337 34.7368 -3.49514e-006 -8.91308e-007 -2.03233e-007 2.16735 7.93427 -0.763254 1.63956e-005 -1.31099e-007 -3.00017 8.02943 -4.95137 0.697684 -63.5568 -3.22614 2.42283 -81.4409 11.2426 -22.4726 1.41137e-014 5.1684e-015 -6.36111e-015 -6.52314 2.67785 0.921359 1.82734e-005 9.45919e-007 3.00126 -8.0292 -4.95142 -0.697651 -172.444 14.2918 -2.93876 180 7.01521e-015 178.816 175.841 32.3604 -179.89 4.18653e-007 -4.00231e-006 0.739616 -27.3684 72.1043 24.7855 9.49109 35.7954 -6.67638 -177.629 17.4311 1.35155 4.54188e-006 -4.67731e-006 -1.18285 -0.826775 -38.7201 0.860359 -6.13802e-006 -3.03334e-006 -0.934912 26.1219 74.2006 -26.9331 -9.30631 37.4847 4.97393 
33.6647 98.6114 7.09624 -4.341 4.05713 6.79001 0.218675 -2.48753 0.0236353 0.437341 -0.972218 0.0284572 0.437021 0.672836 0.0211396 -2.06001 8.79729 -1.20002 2.05852 -2.84408 -1.36209 62.9614 -10.9769 -6.80247 86.3557 9.77714 34.8278 -3.49514e-006 -8.91308e-007 -2.03233e-007 1.93773 7.92647 -0.742176 1.63956e-005 -1.31099e-007 -3.00017 8.02943 -4.95137 0.697684 -63.9337 -3.246 2.4653 -81.8578 11.064 -22.0749 8.34896e-015 1.59028e-015 -0 -6.78881 2.61073 0.909008 1.82734e-005 9.45919e-007 3.00126 -8.0292 -4.95142 -0.697651 -172.272 14.6312 -3.04306 180 7.01516e-015 178.795 175.864 33.0453 -179.858 4.18653e-007 -4.0023e-006 0.790277 -28.9854 72.7874 25.8956 9.42361 36.0264 -6.21258 -177.658 17.7859 1.40285 4.54188e-006 -4.67731e-006 -1.19399 -0.680614 -39.5215 0.905595 -6.13802e-006 -3.03334e-006 -1.00256 27.3994 74.8953 -28.1794 -9.29549 37.7859 4.81209 
